<svg aria-hidden="true" style="position: absolute; width: 0; height: 0; overflow: hidden;" version="1.1" xmlns="http://www.w3.org/2000/svg" xmlns:xlink="http://www.w3.org/1999/xlink">
<defs>
<symbol id="icon-map-pin" viewBox="0 0 22 32">
<path fill="#fff" style="fill: var(--color1, #fff)" d="M10.534 31.608l-9.122-15.804c-0.925-1.601-1.411-3.418-1.412-5.267s0.487-3.666 1.411-5.268 2.254-2.932 3.855-3.857c1.601-0.925 3.418-1.412 5.267-1.412 1.851-0.012 3.672 0.47 5.276 1.396s2.931 2.262 3.846 3.872c0.938 1.597 1.433 3.416 1.433 5.268s-0.495 3.671-1.433 5.268l-9.122 15.804zM2.515 10.536c0.007 1.408 0.381 2.79 1.085 4.009l6.934 12.008 6.875-12.008c0.705-1.217 1.076-2.598 1.077-4.004s-0.369-2.787-1.072-4.005c-0.703-1.218-1.715-2.228-2.933-2.93s-2.6-1.071-4.006-1.069c-1.396 0.002-2.766 0.372-3.973 1.073s-2.208 1.707-2.903 2.917c-0.704 1.219-1.078 2.601-1.085 4.009z"></path>
<path fill="none" stroke="#fff" style="stroke: var(--color1, #fff)" stroke-linejoin="miter" stroke-linecap="butt" stroke-miterlimit="4" stroke-width="2.2069" d="M14.345 10.483c0 2.133-1.729 3.862-3.862 3.862s-3.862-1.729-3.862-3.862c0-2.133 1.729-3.862 3.862-3.862s3.862 1.729 3.862 3.862z"></path>
</symbol>
<symbol id="icon-payment" viewBox="0 0 54 32">
<path fill="#fff" style="fill: var(--color1, #fff)" d="M51.636 31.644h-42.771v-2.625h42.771v-20.618h-43.235v15.024c0 0.345-0.068 0.686-0.2 1.005s-0.325 0.608-0.569 0.852c-0.244 0.244-0.533 0.437-0.852 0.569s-0.66 0.2-1.005 0.2h-3.15c-0.345 0-0.686-0.068-1.005-0.2s-0.608-0.325-0.852-0.569-0.437-0.533-0.569-0.852c-0.132-0.318-0.2-0.66-0.2-1.005v-20.8c0-0.696 0.277-1.364 0.769-1.856s1.16-0.769 1.856-0.769h42.912v2.645h-42.912v20.779h3.17v-15.024c0-0.696 0.277-1.364 0.769-1.856s1.16-0.769 1.856-0.769h43.215c0.696 0 1.364 0.277 1.856 0.769s0.769 1.16 0.769 1.856v20.638c-0.005 0.693-0.284 1.355-0.776 1.843s-1.156 0.762-1.849 0.762z"></path>
<path fill="#fff" style="fill: var(--color1, #fff)" d="M30.291 26.898c-1.701-0.005-3.332-0.684-4.535-1.887s-1.881-2.833-1.887-4.535v-3.191c0-1.703 0.676-3.337 1.881-4.541s2.838-1.881 4.541-1.881 3.337 0.677 4.541 1.881c1.204 1.204 1.881 2.838 1.881 4.541v3.191c-0.005 1.702-0.684 3.332-1.887 4.535s-2.833 1.881-4.535 1.887zM30.291 13.51c-1.001 0-1.962 0.398-2.67 1.106s-1.106 1.669-1.106 2.67v3.191c0 0.496 0.098 0.987 0.287 1.445s0.468 0.874 0.819 1.225c0.351 0.351 0.767 0.629 1.225 0.819s0.949 0.287 1.445 0.287c0.496 0 0.987-0.098 1.445-0.287s0.874-0.468 1.225-0.819c0.351-0.351 0.629-0.767 0.819-1.225s0.287-0.949 0.287-1.445v-3.191c0-1.002-0.398-1.962-1.106-2.67s-1.669-1.106-2.67-1.106z"></path>
</symbol>
<symbol id="icon-check" viewBox="0 0 33 32">
<path fill="#fff" style="fill: var(--color1, #fff)" d="M29.008 12.837c0.466 1.869 0.521 3.816 0.163 5.709s-1.121 3.685-2.238 5.255c-1.116 1.57-2.559 2.879-4.23 3.838s-3.528 1.546-5.446 1.719c-2.186 0.197-4.388-0.147-6.409-1.003s-3.802-2.195-5.183-3.902c-1.381-1.706-2.32-3.727-2.735-5.882s-0.293-4.38 0.356-6.477c0.649-2.097 1.804-4.002 3.364-5.547s3.476-2.682 5.579-3.31c2.103-0.629 4.329-0.729 6.481-0.294s4.163 1.394 5.856 2.792c0.215 0.17 0.355 0.417 0.39 0.689s-0.039 0.547-0.206 0.764l-9.417 11.71c-0.299 0.385-0.739 0.635-1.222 0.696s-0.971-0.071-1.357-0.369l-4.729-3.705-1.638 2.047 4.729 3.685c0.944 0.731 2.138 1.060 3.323 0.914s2.264-0.754 3.003-1.692l9.396-11.689c0.6-0.767 0.877-1.738 0.769-2.707s-0.589-1.856-1.343-2.473c-1.982-1.635-4.329-2.77-6.841-3.308s-5.118-0.465-7.596 0.214-4.757 1.944-6.644 3.689c-1.887 1.744-3.327 3.917-4.198 6.334s-1.149 5.009-0.809 7.556c0.34 2.547 1.287 4.975 2.762 7.080s3.434 3.823 5.712 5.012c2.278 1.189 4.809 1.812 7.379 1.818h1.454c3.739-0.365 7.234-2.022 9.883-4.687s4.287-6.168 4.631-9.91c0.213-2.405-0.123-4.827-0.983-7.083l-2.006 2.518z"></path>
</symbol>
</defs>
</svg>
